C:\Users\u0145647\OneDrive - KU Leuven\KU Leuven\BCN_Workshop\ParameterEstimation\Data_CP1\IPSA\JointAngles\JointAngles_segment_24.mot
version=1
nRows=82
nColumns=4
inDegrees=yes
endheader
                time	         pelvis_tilt	       hip_flexion_r	       ankle_angle_r	
          0.66500000	         90.00000000	          0.00000000	        -48.78685434	
          0.67000000	         90.00000000	          0.00000000	        -48.78725934	
          0.67500000	         90.00000000	          0.00000000	        -48.78786809	
          0.68000000	         90.00000000	          0.00000000	        -48.78892857	
          0.68500000	         90.00000000	          0.00000000	        -48.79027746	
          0.69000000	         90.00000000	          0.00000000	        -48.79064574	
          0.69500000	         90.00000000	          0.00000000	        -48.78912538	
          0.70000000	         90.00000000	          0.00000000	        -48.78593453	
          0.70500000	         90.00000000	          0.00000000	        -48.78168483	
          0.71000000	         90.00000000	          0.00000000	        -48.77676532	
          0.71500000	         90.00000000	          0.00000000	        -48.77126065	
          0.72000000	         90.00000000	          0.00000000	        -48.76532573	
          0.72500000	         90.00000000	          0.00000000	        -48.75889465	
          0.73000000	         90.00000000	          0.00000000	        -48.75165895	
          0.73500000	         90.00000000	          0.00000000	        -48.74357036	
          0.74000000	         90.00000000	          0.00000000	        -48.73568164	
          0.74500000	         90.00000000	          0.00000000	        -48.72945004	
          0.75000000	         90.00000000	          0.00000000	        -48.72493785	
          0.75500000	         90.00000000	          0.00000000	        -48.72071143	
          0.76000000	         90.00000000	          0.00000000	        -48.71558737	
          0.76500000	         90.00000000	          0.00000000	        -48.70931649	
          0.77000000	         90.00000000	          0.00000000	        -48.70151689	
          0.77500000	         90.00000000	          0.00000000	        -48.69260381	
          0.78000000	         90.00000000	          0.00000000	        -48.68467928	
          0.78500000	         90.00000000	          0.00000000	        -48.67920820	
          0.79000000	         90.00000000	          0.00000000	        -48.67527441	
          0.79500000	         90.00000000	          0.00000000	        -48.67086274	
          0.80000000	         90.00000000	          0.00000000	        -48.66472412	
          0.80500000	         90.00000000	          0.00000000	        -48.65671676	
          0.81000000	         90.00000000	          0.00000000	        -48.64763169	
          0.81500000	         90.00000000	          0.00000000	        -48.63832984	
          0.82000000	         90.00000000	          0.00000000	        -48.62933472	
          0.82500000	         90.00000000	          0.00000000	        -48.62061375	
          0.83000000	         90.00000000	          0.00000000	        -48.61213990	
          0.83500000	         90.00000000	          0.00000000	        -48.60366718	
          0.84000000	         90.00000000	          0.00000000	        -48.59446484	
          0.84500000	         90.00000000	          0.00000000	        -48.58368636	
          0.85000000	         90.00000000	          0.00000000	        -48.57064983	
          0.85500000	         90.00000000	          0.00000000	        -48.55516509	
          0.86000000	         90.00000000	          0.00000000	        -48.53779272	
          0.86500000	         90.00000000	          0.00000000	        -48.51960780	
          0.87000000	         90.00000000	          0.00000000	        -48.50145678	
          0.87500000	         90.00000000	          0.00000000	        -48.48303563	
          0.88000000	         90.00000000	          0.00000000	        -48.46395830	
          0.88500000	         90.00000000	          0.00000000	        -48.44409864	
          0.89000000	         90.00000000	          0.00000000	        -48.42309072	
          0.89500000	         90.00000000	          0.00000000	        -48.40102680	
          0.90000000	         90.00000000	          0.00000000	        -48.37851662	
          0.90500000	         90.00000000	          0.00000000	        -48.35574957	
          0.91000000	         90.00000000	          0.00000000	        -48.33242210	
          0.91500000	         90.00000000	          0.00000000	        -48.30847539	
          0.92000000	         90.00000000	          0.00000000	        -48.28413774	
          0.92500000	         90.00000000	          0.00000000	        -48.26026887	
          0.93000000	         90.00000000	          0.00000000	        -48.23793755	
          0.93500000	         90.00000000	          0.00000000	        -48.21747098	
          0.94000000	         90.00000000	          0.00000000	        -48.19825255	
          0.94500000	         90.00000000	          0.00000000	        -48.17918031	
          0.95000000	         90.00000000	          0.00000000	        -48.15986119	
          0.95500000	         90.00000000	          0.00000000	        -48.14070663	
          0.96000000	         90.00000000	          0.00000000	        -48.12199166	
          0.96500000	         90.00000000	          0.00000000	        -48.10351224	
          0.97000000	         90.00000000	          0.00000000	        -48.08408854	
          0.97500000	         90.00000000	          0.00000000	        -48.06264822	
          0.98000000	         90.00000000	          0.00000000	        -48.03960389	
          0.98500000	         90.00000000	          0.00000000	        -48.01642369	
          0.99000000	         90.00000000	          0.00000000	        -47.99448641	
          0.99500000	         90.00000000	          0.00000000	        -47.97450063	
          1.00000000	         90.00000000	          0.00000000	        -47.95543462	
          1.00500000	         90.00000000	          0.00000000	        -47.93506800	
          1.01000000	         90.00000000	          0.00000000	        -47.91214680	
          1.01500000	         90.00000000	          0.00000000	        -47.88682166	
          1.02000000	         90.00000000	          0.00000000	        -47.85965781	
          1.02500000	         90.00000000	          0.00000000	        -47.83148812	
          1.03000000	         90.00000000	          0.00000000	        -47.80243168	
          1.03500000	         90.00000000	          0.00000000	        -47.77203017	
          1.04000000	         90.00000000	          0.00000000	        -47.74084375	
          1.04500000	         90.00000000	          0.00000000	        -47.70965272	
          1.05000000	         90.00000000	          0.00000000	        -47.67866509	
          1.05500000	         90.00000000	          0.00000000	        -47.64831009	
          1.06000000	         90.00000000	          0.00000000	        -47.61833164	
          1.06500000	         90.00000000	          0.00000000	        -47.58766566	
          1.07000000	         90.00000000	          0.00000000	        -47.55634791	
